<?xml version="1.0" encoding="UTF-8"?>
<svg xmlns="http://www.w3.org/2000/svg" xmlns:xlink="http://www.w3.org/1999/xlink" width="375pt" height="374.999991pt" viewBox="0 0 375 374.999991" version="1.2">
<defs>
<clipPath id="clip1">
  <path d="M 119 68 L 285.488281 68 L 285.488281 354.492188 L 119 354.492188 Z M 119 68 "/>
</clipPath>
<clipPath id="clip2">
  <path d="M 90 188 L 184 188 L 184 354.492188 L 90 354.492188 Z M 90 188 "/>
</clipPath>
</defs>
<g id="surface1">
<path style=" stroke:none;fill-rule:nonzero;fill:rgb(32.548523%,27.059937%,23.529053%);fill-opacity:1;" d="M 199.894531 174.058594 L 255.457031 77.703125 C 255.058594 77.628906 254.664062 77.527344 254.269531 77.441406 C 253.792969 77.335938 253.316406 77.238281 252.84375 77.109375 C 251.933594 76.859375 251.039062 76.558594 250.152344 76.230469 C 249.820312 76.105469 249.488281 75.96875 249.160156 75.832031 C 248.160156 75.417969 247.175781 74.96875 246.226562 74.453125 C 246.207031 74.441406 246.183594 74.433594 246.164062 74.421875 C 246.121094 74.398438 246.085938 74.371094 246.046875 74.347656 C 245.273438 73.917969 244.523438 73.449219 243.789062 72.953125 C 243.480469 72.746094 243.1875 72.523438 242.890625 72.304688 C 242.449219 71.980469 242.015625 71.652344 241.589844 71.304688 C 241.253906 71.027344 240.921875 70.746094 240.59375 70.457031 C 240.246094 70.144531 239.90625 69.820312 239.570312 69.492188 C 239.242188 69.167969 238.910156 68.847656 238.597656 68.511719 C 238.539062 68.449219 238.472656 68.390625 238.414062 68.324219 L 191.398438 157.875 L 199.277344 172.878906 L 199.894531 174.058594 "/>
<path style=" stroke:none;fill-rule:nonzero;fill:rgb(32.548523%,27.059937%,23.529053%);fill-opacity:1;" d="M 242.703125 62.96875 C 243.214844 63.582031 243.757812 64.164062 244.328125 64.722656 C 244.496094 64.882812 244.667969 65.042969 244.839844 65.203125 C 245.371094 65.6875 245.925781 66.148438 246.496094 66.582031 C 246.683594 66.726562 246.863281 66.875 247.054688 67.011719 C 247.808594 67.554688 248.59375 68.0625 249.410156 68.511719 C 250.210938 68.953125 251.039062 69.332031 251.878906 69.679688 C 252.160156 69.792969 252.449219 69.890625 252.734375 69.996094 C 253.289062 70.203125 253.851562 70.386719 254.417969 70.546875 C 254.777344 70.648438 255.136719 70.75 255.496094 70.832031 C 256.085938 70.96875 256.679688 71.074219 257.273438 71.164062 C 257.5625 71.207031 257.847656 71.269531 258.136719 71.304688 C 259.082031 71.40625 260.035156 71.460938 260.992188 71.4375 C 260.996094 71.4375 261 71.4375 261.007812 71.441406 C 263.15625 71.421875 265.316406 71.125 267.4375 70.511719 C 273.515625 68.75 278.542969 64.726562 281.59375 59.183594 C 284.644531 53.640625 285.355469 47.242188 283.589844 41.167969 C 281.828125 35.09375 277.800781 30.070312 272.257812 27.019531 C 260.816406 20.722656 246.378906 24.910156 240.078125 36.351562 C 235.789062 44.140625 236.371094 53.3125 240.789062 60.363281 C 241.296875 61.167969 241.851562 61.941406 242.449219 62.679688 C 242.527344 62.777344 242.617188 62.871094 242.703125 62.96875 "/>
<g clip-path="url(#clip1)" clip-rule="nonzero">
<path style=" stroke:none;fill-rule:nonzero;fill:rgb(32.548523%,27.059937%,23.529053%);fill-opacity:1;" d="M 184.609375 159.441406 C 184.605469 159.441406 184.605469 159.4375 184.605469 159.4375 L 136.773438 68.328125 C 136.707031 68.398438 136.636719 68.460938 136.570312 68.53125 C 136.269531 68.855469 135.949219 69.164062 135.628906 69.476562 C 135.289062 69.8125 134.941406 70.140625 134.585938 70.457031 C 134.261719 70.75 133.933594 71.03125 133.59375 71.308594 C 133.171875 71.652344 132.734375 71.984375 132.296875 72.304688 C 131.996094 72.523438 131.707031 72.742188 131.398438 72.953125 C 130.628906 73.472656 129.839844 73.96875 129.023438 74.421875 C 128.042969 74.957031 127.027344 75.417969 126.003906 75.84375 C 125.6875 75.976562 125.371094 76.101562 125.054688 76.222656 C 124.144531 76.5625 123.222656 76.871094 122.28125 77.125 C 121.839844 77.246094 121.394531 77.335938 120.945312 77.433594 C 120.539062 77.523438 120.136719 77.628906 119.726562 77.703125 L 178.347656 179.359375 L 178.347656 179.363281 L 190.511719 200.457031 C 190.511719 200.457031 190.515625 200.460938 190.515625 200.460938 L 278.914062 353.761719 C 279.214844 354.285156 279.890625 354.472656 280.414062 354.183594 L 284.453125 351.960938 C 284.976562 351.667969 285.179688 351.003906 284.902344 350.472656 L 196.773438 182.613281 L 184.609375 159.441406 "/>
</g>
<g clip-path="url(#clip2)" clip-rule="nonzero">
<path style=" stroke:none;fill-rule:nonzero;fill:rgb(32.548523%,27.059937%,23.529053%);fill-opacity:1;" d="M 90.285156 350.46875 C 90.007812 351 90.207031 351.667969 90.734375 351.960938 L 94.773438 354.183594 C 95.296875 354.46875 95.972656 354.28125 96.269531 353.761719 L 183.703125 202.140625 L 175.566406 188.035156 L 90.285156 350.46875 "/>
</g>
<path style=" stroke:none;fill-rule:nonzero;fill:rgb(32.548523%,27.059937%,23.529053%);fill-opacity:1;" d="M 122.9375 69.816406 C 122.992188 69.796875 123.042969 69.777344 123.097656 69.757812 C 124.003906 69.402344 124.894531 68.992188 125.75 68.523438 C 125.757812 68.519531 125.765625 68.519531 125.773438 68.515625 C 125.785156 68.507812 125.796875 68.5 125.808594 68.492188 C 126.613281 68.046875 127.382812 67.546875 128.128906 67.015625 C 128.320312 66.875 128.503906 66.726562 128.691406 66.582031 C 129.261719 66.148438 129.816406 65.6875 130.34375 65.203125 C 130.519531 65.046875 130.6875 64.882812 130.855469 64.722656 C 131.421875 64.171875 131.960938 63.59375 132.46875 62.988281 C 132.558594 62.882812 132.65625 62.78125 132.742188 62.671875 C 133.332031 61.941406 133.882812 61.179688 134.386719 60.378906 C 138.8125 53.328125 139.398438 44.148438 135.109375 36.351562 C 130.796875 28.519531 122.675781 24.089844 114.3125 24.089844 C 110.449219 24.089844 106.539062 25.03125 102.925781 27.019531 C 97.382812 30.070312 93.355469 35.09375 91.59375 41.167969 C 89.832031 47.242188 90.542969 53.640625 93.589844 59.183594 C 96.644531 64.726562 101.671875 68.75 107.75 70.511719 C 109.867188 71.125 112.027344 71.421875 114.171875 71.441406 C 114.179688 71.441406 114.1875 71.4375 114.191406 71.4375 C 117.164062 71.410156 120.152344 70.878906 122.9375 69.816406 "/>
</g>
</svg>
