<?xml version="1.0" encoding="UTF-8"?>
<svg xmlns="http://www.w3.org/2000/svg" xmlns:xlink="http://www.w3.org/1999/xlink" width="375pt" height="374.999991pt" viewBox="0 0 375 374.999991" version="1.2">
<defs>
<clipPath id="clip1">
  <path d="M 12.699219 12.699219 L 362.199219 12.699219 L 362.199219 362.199219 L 12.699219 362.199219 Z M 12.699219 12.699219 "/>
</clipPath>
</defs>
<g id="surface1">
<g clip-path="url(#clip1)" clip-rule="nonzero">
<path style=" stroke:none;fill-rule:nonzero;fill:rgb(32.548523%,27.059937%,23.529053%);fill-opacity:1;" d="M 187.449219 39.582031 C 268.976562 39.582031 335.316406 105.921875 335.316406 187.449219 C 335.316406 268.976562 268.976562 335.316406 187.449219 335.316406 C 105.921875 335.316406 39.582031 268.976562 39.582031 187.449219 C 39.582031 105.921875 105.921875 39.582031 187.449219 39.582031 M 187.449219 12.699219 C 90.933594 12.699219 12.699219 90.933594 12.699219 187.449219 C 12.699219 283.964844 90.933594 362.199219 187.449219 362.199219 C 283.964844 362.199219 362.199219 283.964844 362.199219 187.449219 C 362.199219 90.933594 283.964844 12.699219 187.449219 12.699219 Z M 187.449219 12.699219 "/>
</g>
<path style=" stroke:none;fill-rule:nonzero;fill:rgb(32.548523%,27.059937%,23.529053%);fill-opacity:1;" d="M 187.449219 55.753906 C 114.710938 55.753906 55.753906 114.710938 55.753906 187.449219 C 55.753906 260.183594 114.710938 319.144531 187.449219 319.144531 C 260.183594 319.144531 319.144531 260.183594 319.144531 187.449219 C 319.144531 114.710938 260.183594 55.753906 187.449219 55.753906 Z M 147.121094 254.660156 C 132.28125 254.660156 120.238281 242.617188 120.238281 227.777344 C 120.238281 212.9375 132.28125 200.890625 147.121094 200.890625 C 161.960938 200.890625 174.007812 212.9375 174.007812 227.777344 C 174.007812 242.617188 161.960938 254.660156 147.121094 254.660156 Z M 147.121094 174.007812 C 132.28125 174.007812 120.238281 161.960938 120.238281 147.121094 C 120.238281 132.28125 132.28125 120.238281 147.121094 120.238281 C 161.960938 120.238281 174.007812 132.28125 174.007812 147.121094 C 174.007812 161.960938 161.960938 174.007812 147.121094 174.007812 Z M 227.777344 254.660156 C 212.9375 254.660156 200.890625 242.617188 200.890625 227.777344 C 200.890625 212.9375 212.9375 200.890625 227.777344 200.890625 C 242.617188 200.890625 254.660156 212.9375 254.660156 227.777344 C 254.660156 242.617188 242.617188 254.660156 227.777344 254.660156 Z M 227.777344 174.007812 C 212.9375 174.007812 200.890625 161.960938 200.890625 147.121094 C 200.890625 132.28125 212.9375 120.238281 227.777344 120.238281 C 242.617188 120.238281 254.660156 132.28125 254.660156 147.121094 C 254.660156 161.960938 242.617188 174.007812 227.777344 174.007812 Z M 227.777344 174.007812 "/>
</g>
</svg>
