<?xml version="1.0" encoding="UTF-8"?>
<svg xmlns="http://www.w3.org/2000/svg" xmlns:xlink="http://www.w3.org/1999/xlink" width="375pt" height="374.999991pt" viewBox="0 0 375 374.999991" version="1.2">
<defs>
<clipPath id="clip1">
  <path d="M 56.625 19.710938 L 318.375 19.710938 L 318.375 354.960938 L 56.625 354.960938 Z M 56.625 19.710938 "/>
</clipPath>
</defs>
<g id="surface1">
<g clip-path="url(#clip1)" clip-rule="nonzero">
<path style=" stroke:none;fill-rule:nonzero;fill:rgb(32.548523%,27.059937%,23.529053%);fill-opacity:1;" d="M 312.671875 83.171875 L 94.09375 83.171875 C 79.578125 83.171875 67.761719 71.371094 67.761719 56.867188 C 67.761719 42.359375 79.578125 30.558594 94.078125 30.558594 L 297.222656 31.167969 C 297.230469 31.167969 297.238281 31.167969 297.242188 31.167969 C 300.234375 31.167969 302.660156 28.75 302.671875 25.757812 C 302.679688 22.761719 300.257812 20.328125 297.257812 20.316406 L 94.09375 19.710938 C 73.585938 19.710938 56.902344 36.378906 56.902344 56.867188 L 56.902344 279.644531 L 57.265625 279.644531 C 59.6875 297.8125 75.261719 311.886719 94.09375 311.886719 L 111.042969 311.886719 L 111.042969 354.960938 L 136.605469 340.109375 L 162.167969 354.960938 L 162.167969 311.886719 L 312.671875 311.886719 C 315.667969 311.886719 318.101562 309.457031 318.101562 306.460938 L 318.101562 88.597656 C 318.101562 85.601562 315.667969 83.171875 312.671875 83.171875 Z M 67.761719 274.726562 L 67.761719 83.078125 C 73.699219 89.027344 81.640625 92.980469 90.472656 93.839844 L 90.472656 300.757812 C 77.667969 298.984375 67.761719 288.003906 67.761719 274.726562 Z M 307.242188 301.035156 L 97.714844 301.035156 L 97.714844 94.023438 L 307.242188 94.023438 Z M 307.242188 301.035156 "/>
</g>
<path style=" stroke:none;fill-rule:nonzero;fill:rgb(32.548523%,27.059937%,23.529053%);fill-opacity:1;" d="M 94.101562 42.671875 C 94.097656 42.671875 94.097656 42.671875 94.09375 42.671875 C 92.097656 42.671875 90.476562 44.285156 90.476562 46.28125 C 90.472656 48.277344 92.085938 49.902344 94.089844 49.90625 L 302.378906 50.308594 C 302.382812 50.308594 302.382812 50.308594 302.382812 50.308594 C 304.382812 50.308594 306 48.695312 306.003906 46.699219 C 306.007812 44.703125 304.394531 43.082031 302.390625 43.078125 Z M 94.101562 42.671875 "/>
<path style=" stroke:none;fill-rule:nonzero;fill:rgb(32.548523%,27.059937%,23.529053%);fill-opacity:1;" d="M 94.09375 63.828125 C 92.097656 63.828125 90.476562 65.445312 90.476562 67.441406 C 90.472656 69.4375 92.089844 71.058594 94.089844 71.058594 L 307.523438 71.261719 L 307.527344 71.261719 C 309.527344 71.261719 311.144531 69.644531 311.148438 67.648438 C 311.152344 65.652344 309.53125 64.03125 307.53125 64.027344 L 94.097656 63.828125 Z M 94.09375 63.828125 "/>
</g>
</svg>
