<?xml version="1.0" encoding="UTF-8"?>
<svg xmlns="http://www.w3.org/2000/svg" xmlns:xlink="http://www.w3.org/1999/xlink" width="375pt" height="374.999991pt" viewBox="0 0 375 374.999991" version="1.2">
<defs>
<clipPath id="clip1">
  <path d="M 32.722656 21.742188 L 227 21.742188 L 227 353.242188 L 32.722656 353.242188 Z M 32.722656 21.742188 "/>
</clipPath>
<clipPath id="clip2">
  <path d="M 148 21.742188 L 342.472656 21.742188 L 342.472656 353.242188 L 148 353.242188 Z M 148 21.742188 "/>
</clipPath>
</defs>
<g id="surface1">
<path style=" stroke:none;fill-rule:nonzero;fill:rgb(32.548523%,27.059937%,23.529053%);fill-opacity:1;" d="M 97.105469 122.074219 L 82.550781 135.714844 L 68.363281 122.464844 C 65.164062 118.816406 65.164062 116.207031 68.363281 112.558594 C 69.746094 111.003906 71.515625 110.140625 73.371094 110.140625 C 75.25 110.140625 77.023438 111.003906 78.382812 112.558594 C 80.5 114.953125 84.601562 114.953125 86.71875 112.558594 C 89.441406 109.449219 93.996094 109.429688 96.742188 112.558594 C 99.9375 116.207031 99.9375 118.816406 97.105469 122.074219 Z M 82.550781 101.746094 C 75.488281 97.363281 65.726562 98.808594 60.046875 105.261719 C 53.222656 113.054688 53.222656 121.96875 60.4375 130.125 L 78.773438 147.328125 C 79.828125 148.320312 81.191406 148.816406 82.550781 148.816406 C 83.910156 148.816406 85.273438 148.320312 86.332031 147.328125 L 105.054688 129.738281 C 111.878906 121.96875 111.878906 113.054688 105.054688 105.261719 C 99.375 98.808594 89.613281 97.363281 82.550781 101.746094 "/>
<g clip-path="url(#clip1)" clip-rule="nonzero">
<path style=" stroke:none;fill-rule:nonzero;fill:rgb(32.548523%,27.059937%,23.529053%);fill-opacity:1;" d="M 163.128906 237.28125 L 110.367188 290.003906 L 81.210938 261.019531 C 89.246094 251.203125 93.609375 239.027344 93.609375 226.167969 C 93.609375 197.570312 71.753906 173.980469 43.851562 171.195312 L 43.851562 88.042969 L 121.253906 88.042969 L 121.253906 193.015625 C 121.253906 194.484375 121.835938 195.886719 122.871094 196.921875 Z M 179.671875 253.898438 L 126.996094 306.539062 L 118.207031 297.796875 L 170.925781 245.113281 Z M 196.234375 270.496094 L 143.625 323.070312 L 134.835938 314.328125 L 187.488281 261.710938 Z M 204.355469 278.652344 C 218.847656 293.15625 218.847656 316.765625 204.355469 331.292969 C 197.359375 338.328125 188.03125 342.191406 178.117188 342.191406 C 168.203125 342.191406 158.894531 338.328125 151.875 331.269531 L 151.464844 330.859375 L 204.03125 278.328125 Z M 43.851562 223.878906 L 43.851562 182.355469 C 65.640625 185.09375 82.550781 203.65625 82.550781 226.167969 C 82.550781 236.070312 79.269531 245.460938 73.308594 253.164062 Z M 43.851562 65.941406 L 121.253906 65.941406 L 121.253906 76.992188 L 43.851562 76.992188 Z M 43.851562 32.792969 L 54.90625 32.792969 L 54.90625 54.890625 L 43.851562 54.890625 Z M 65.964844 32.792969 L 77.023438 32.792969 L 77.023438 54.890625 L 65.964844 54.890625 Z M 88.078125 32.792969 L 99.136719 32.792969 L 99.136719 54.890625 L 88.078125 54.890625 Z M 110.195312 32.792969 L 121.253906 32.792969 L 121.253906 54.890625 L 110.195312 54.890625 Z M 132.308594 27.265625 C 132.308594 24.222656 129.828125 21.742188 126.78125 21.742188 L 38.320312 21.742188 C 35.277344 21.742188 32.792969 24.222656 32.792969 27.265625 L 32.792969 226.167969 C 32.792969 227.632812 33.375 229.058594 34.414062 230.09375 L 144.058594 339.105469 C 153.152344 348.210938 165.265625 353.242188 178.117188 353.242188 C 190.988281 353.242188 203.105469 348.210938 212.195312 339.105469 C 230.964844 320.285156 230.964844 289.660156 212.195312 270.839844 L 132.308594 190.726562 L 132.308594 27.265625 "/>
</g>
<path style=" stroke:none;fill-rule:nonzero;fill:rgb(32.548523%,27.059937%,23.529053%);fill-opacity:1;" d="M 278.085938 252.90625 L 292.644531 239.265625 L 306.832031 252.519531 C 310.027344 256.164062 310.027344 258.777344 306.832031 262.425781 C 304.089844 265.554688 299.53125 265.554688 296.8125 262.425781 C 295.753906 261.214844 294.242188 260.546875 292.644531 260.546875 C 291.046875 260.546875 289.535156 261.214844 288.476562 262.425781 C 285.753906 265.554688 281.199219 265.554688 278.453125 262.425781 C 275.257812 258.777344 275.257812 256.164062 278.085938 252.90625 Z M 292.644531 273.238281 C 295.40625 274.964844 298.582031 275.890625 301.824219 275.890625 C 306.832031 275.890625 311.691406 273.648438 315.148438 269.71875 C 321.972656 261.925781 321.972656 253.015625 314.757812 244.855469 L 296.421875 227.65625 C 294.308594 225.667969 290.980469 225.667969 288.863281 227.65625 L 270.140625 245.246094 C 263.316406 253.015625 263.316406 261.925781 270.140625 269.71875 C 275.820312 276.171875 285.582031 277.640625 292.644531 273.238281 "/>
<g clip-path="url(#clip2)" clip-rule="nonzero">
<path style=" stroke:none;fill-rule:nonzero;fill:rgb(32.548523%,27.059937%,23.529053%);fill-opacity:1;" d="M 212.066406 137.703125 L 264.828125 84.976562 L 293.984375 113.960938 C 285.949219 123.78125 281.585938 135.953125 281.585938 148.816406 C 281.585938 177.414062 303.441406 201 331.34375 203.785156 L 331.34375 286.941406 L 253.941406 286.941406 L 253.941406 181.964844 C 253.941406 180.5 253.359375 179.09375 252.324219 178.058594 Z M 195.523438 121.082031 L 248.199219 68.445312 L 256.988281 77.183594 L 204.269531 129.867188 Z M 178.957031 104.488281 L 231.566406 51.914062 L 240.359375 60.652344 L 187.707031 113.269531 Z M 170.839844 96.351562 C 156.347656 81.824219 156.347656 58.191406 170.839844 43.691406 C 177.835938 36.652344 187.164062 32.792969 197.078125 32.792969 C 206.992188 32.792969 216.300781 36.652344 223.320312 43.691406 L 223.730469 44.121094 L 171.164062 96.652344 Z M 331.34375 151.105469 L 331.34375 192.628906 C 309.554688 189.886719 292.644531 171.324219 292.644531 148.816406 C 292.644531 138.910156 295.925781 129.523438 301.886719 121.816406 Z M 331.34375 309.042969 L 253.941406 309.042969 L 253.941406 297.992188 L 331.34375 297.992188 Z M 331.34375 342.191406 L 320.289062 342.191406 L 320.289062 320.089844 L 331.34375 320.089844 Z M 309.230469 342.191406 L 298.171875 342.191406 L 298.171875 320.089844 L 309.230469 320.089844 Z M 287.113281 342.191406 L 276.058594 342.191406 L 276.058594 320.089844 L 287.113281 320.089844 Z M 265 342.191406 L 253.941406 342.191406 L 253.941406 320.089844 L 265 320.089844 Z M 242.886719 347.714844 C 242.886719 350.757812 245.367188 353.242188 248.414062 353.242188 L 336.875 353.242188 C 339.917969 353.242188 342.402344 350.757812 342.402344 347.714844 L 342.402344 148.816406 C 342.402344 147.347656 341.820312 145.925781 340.78125 144.886719 L 231.136719 35.878906 C 222.042969 26.769531 209.929688 21.742188 197.078125 21.742188 C 184.207031 21.742188 172.089844 26.769531 163 35.878906 C 144.230469 54.695312 144.230469 85.320312 163 104.140625 L 242.886719 184.253906 L 242.886719 347.714844 "/>
</g>
</g>
</svg>
