<?xml version="1.0" encoding="UTF-8"?>
<svg xmlns="http://www.w3.org/2000/svg" xmlns:xlink="http://www.w3.org/1999/xlink" width="375pt" height="374.999991pt" viewBox="0 0 375 374.999991" version="1.2">
<defs>
<clipPath id="clip1">
  <path d="M 9.144531 27 L 365.851562 27 L 365.851562 348.460938 L 9.144531 348.460938 Z M 9.144531 27 "/>
</clipPath>
</defs>
<g id="surface1">
<g clip-path="url(#clip1)" clip-rule="nonzero">
<path style=" stroke:none;fill-rule:nonzero;fill:rgb(32.548523%,27.059937%,23.529053%);fill-opacity:1;" d="M 229 171.441406 L 229 183.675781 C 250.0625 169.304688 273.398438 157.269531 298.660156 147.738281 C 293.628906 146.824219 288.253906 146.363281 282.550781 146.363281 C 243.996094 146.363281 231.371094 166.796875 229 171.441406 Z M 92.152344 146.363281 C 90.804688 146.363281 89.472656 146.390625 88.160156 146.441406 C 106.265625 158.9375 125.542969 169.53125 145.699219 178.0625 L 145.699219 171.445312 C 143.347656 166.878906 130.621094 146.363281 92.152344 146.363281 Z M 55.769531 154.859375 C 83.023438 177.015625 113.210938 194.371094 145.699219 206.589844 L 145.699219 190.925781 C 119.210938 180.1875 94.140625 166.039062 71.085938 148.8125 C 65.519531 150.222656 60.40625 152.238281 55.769531 154.859375 Z M 40.230469 167.953125 C 39.011719 169.445312 37.84375 171.015625 36.738281 172.664062 C 76.105469 206.515625 116.371094 224.820312 145.699219 234.566406 L 145.699219 219.242188 C 109.429688 206.15625 75.871094 186.941406 45.824219 162.058594 C 43.835938 163.867188 41.96875 165.832031 40.230469 167.953125 Z M 25.894531 197.328125 C 69.28125 234.328125 113.6875 252.824219 145.699219 262.015625 L 145.699219 247.066406 C 115.476562 237.441406 72.777344 218.777344 30.878906 183.289062 C 28.941406 187.59375 27.277344 192.277344 25.894531 197.328125 Z M 20.964844 231.484375 C 25.320312 227.355469 29.476562 223.0625 33.40625 218.632812 C 29.957031 216.019531 26.503906 213.289062 23.054688 210.457031 C 21.984375 216.980469 21.289062 223.996094 20.964844 231.484375 Z M 20.828125 247.609375 C 20.972656 253.058594 21.308594 258.261719 21.832031 263.222656 C 33.597656 254.089844 44.257812 243.914062 53.640625 232.835938 C 50.125 230.554688 46.59375 228.179688 43.050781 225.6875 C 36.25 233.425781 28.796875 240.769531 20.828125 247.609375 Z M 27.234375 290.046875 C 45.851562 277.554688 62.019531 262.722656 75.433594 245.839844 C 71.601562 243.742188 67.730469 241.523438 63.832031 239.1875 C 52.265625 253.070312 38.835938 265.632812 23.816406 276.621094 C 24.746094 281.375 25.882812 285.851562 27.234375 290.046875 Z M 38.222656 312.308594 C 55.90625 301.320312 78.964844 283.542969 98.238281 257.1875 C 94.277344 255.398438 90.25 253.488281 86.167969 251.445312 C 71.207031 270.695312 52.921875 287.453125 31.707031 301.359375 C 33.628906 305.355469 35.800781 309.007812 38.222656 312.308594 Z M 57.980469 329.1875 C 77.003906 317.15625 102.21875 297.128906 122.113281 266.863281 C 118 265.382812 113.765625 263.765625 109.425781 261.996094 C 89.386719 290.152344 65.207031 309.285156 46.324219 321.261719 C 49.832031 324.378906 53.722656 327.023438 57.980469 329.1875 Z M 91.039062 336.492188 C 113.707031 319.414062 132.085938 298.871094 145.699219 275.390625 L 145.699219 274.363281 C 141.886719 273.3125 137.890625 272.132812 133.726562 270.808594 C 114.949219 300.320312 91.335938 320.875 71.886719 334.253906 C 77.769531 335.671875 84.160156 336.421875 91.039062 336.492188 Z M 145.699219 311.429688 L 145.699219 297.375 C 136.210938 310.773438 125.117188 323.105469 112.519531 334.277344 C 135.386719 328.855469 143.8125 315.128906 145.699219 311.429688 Z M 271.871094 335.929688 C 260.90625 325.59375 248.363281 311.382812 236.867188 292.648438 C 233.917969 295.476562 231.300781 298.136719 229 300.582031 L 229 311.421875 C 231.121094 315.535156 241.667969 332.589844 271.871094 335.929688 Z M 306.277344 333.324219 C 292.621094 322.234375 273.554688 303.40625 257.273438 275.0625 C 253.125 278.28125 249.308594 281.433594 245.820312 284.46875 C 260.804688 309.496094 277.816406 326.183594 290.25 336.207031 C 295.96875 335.757812 301.316406 334.796875 306.277344 333.324219 Z M 329.824219 319.933594 C 320.742188 313.191406 308.929688 302.980469 296.851562 288.511719 C 289.710938 279.964844 283.148438 270.691406 277.273438 260.886719 C 273.640625 263.238281 270.183594 265.589844 266.898438 267.921875 C 284.597656 299.21875 305.867188 318.363281 318.847656 328.054688 C 322.859375 325.796875 326.519531 323.089844 329.824219 319.933594 Z M 353.949219 241.433594 C 353.949219 235.679688 353.746094 230.183594 353.347656 224.933594 C 349.457031 226.207031 345.664062 227.527344 341.953125 228.886719 C 342.011719 231.074219 342.050781 233.277344 342.050781 235.492188 C 342.050781 263.570312 337.441406 286.433594 328.371094 303.589844 C 331.664062 306.390625 334.734375 308.792969 337.523438 310.839844 C 348.425781 295.011719 353.949219 271.707031 353.949219 241.433594 Z M 308.347656 283.664062 C 312.0625 287.953125 315.726562 291.808594 319.261719 295.261719 C 326.488281 280.144531 330.152344 260.089844 330.152344 235.492188 C 330.152344 234.8125 330.132812 234.136719 330.128906 233.457031 C 325.878906 235.191406 321.761719 236.96875 317.773438 238.785156 C 316.648438 256.117188 313.480469 271.179688 308.347656 283.664062 Z M 305.335938 244.769531 C 298.984375 247.992188 293.003906 251.292969 287.386719 254.625 C 291.179688 260.96875 295.28125 267.078125 299.652344 272.886719 C 302.375 264.621094 304.28125 255.222656 305.335938 244.769531 Z M 349.179688 198.722656 C 290.710938 216.464844 251.894531 244.105469 229 265.09375 L 229 283.71875 C 251.253906 262.449219 290.964844 232.441406 352.023438 212.875 C 351.285156 207.878906 350.335938 203.164062 349.179688 198.722656 Z M 339.097656 174.417969 C 287.148438 189.902344 250.921875 213.324219 229 231.078125 L 229 249.257812 C 253.449219 228.59375 291.40625 203.859375 345.550781 187.402344 C 343.703125 182.664062 341.546875 178.332031 339.097656 174.417969 Z M 205.199219 170.132812 L 205.199219 312.738281 C 205.199219 316.011719 207.871094 318.679688 211.152344 318.679688 C 214.429688 318.679688 217.101562 316.011719 217.101562 312.738281 L 217.101562 170.132812 C 217.101562 166.855469 214.429688 164.191406 211.152344 164.191406 C 207.871094 164.191406 205.199219 166.855469 205.199219 170.132812 Z M 163.550781 164.191406 C 160.269531 164.191406 157.601562 166.855469 157.601562 170.132812 L 157.601562 312.738281 C 157.601562 316.011719 160.269531 318.679688 163.550781 318.679688 C 166.832031 318.679688 169.5 316.011719 169.5 312.738281 L 169.5 170.132812 C 169.5 166.855469 166.832031 164.191406 163.550781 164.191406 Z M 181.402344 170.132812 L 181.402344 312.738281 C 181.402344 316.011719 184.070312 318.679688 187.351562 318.679688 C 190.632812 318.679688 193.300781 316.011719 193.300781 312.738281 L 193.300781 170.132812 C 193.300781 166.855469 190.632812 164.191406 187.351562 164.191406 C 184.070312 164.191406 181.402344 166.855469 181.402344 170.132812 Z M 317.046875 153.84375 C 284.359375 164.621094 254.769531 179.539062 229 198.214844 L 229 215.988281 C 251.476562 199.019531 285.273438 178.714844 331.273438 164.378906 C 327.128906 160.113281 322.378906 156.601562 317.046875 153.84375 Z M 183.542969 88.324219 C 191.96875 81.308594 199.25 75.25 199.25 63.179688 C 199.25 44.238281 185.976562 39.289062 185.46875 39.105469 C 182.351562 38.066406 180.664062 34.703125 181.707031 31.589844 C 182.746094 28.476562 186.117188 26.792969 189.234375 27.832031 C 190.128906 28.128906 211.152344 35.449219 211.152344 63.179688 C 211.152344 80.816406 200.53125 89.65625 191.160156 97.453125 C 182.730469 104.46875 175.449219 110.523438 175.449219 122.597656 C 175.449219 144.476562 185.953125 151.027344 188.691406 152.363281 C 192.730469 152.664062 196.402344 154.3125 199.25 156.859375 C 202.410156 154.03125 206.582031 152.304688 211.152344 152.304688 C 216.191406 152.304688 220.75 154.40625 224 157.777344 C 232.230469 147.925781 249.507812 134.480469 282.550781 134.480469 C 309.007812 134.480469 329.574219 143.210938 343.679688 160.425781 C 358.394531 178.382812 365.851562 205.636719 365.851562 241.433594 C 365.851562 277.230469 358.394531 304.484375 343.679688 322.441406 C 329.574219 339.660156 309.007812 348.386719 282.550781 348.386719 C 249.507812 348.386719 232.230469 334.945312 224 325.09375 C 220.75 328.460938 216.191406 330.5625 211.152344 330.5625 C 206.582031 330.5625 202.410156 328.839844 199.25 326.011719 C 196.089844 328.839844 191.917969 330.5625 187.351562 330.5625 C 182.785156 330.5625 178.613281 328.839844 175.449219 326.011719 C 172.289062 328.839844 168.117188 330.5625 163.550781 330.5625 C 158.511719 330.5625 153.953125 328.460938 150.703125 325.09375 C 142.472656 334.945312 125.195312 348.386719 92.152344 348.386719 C 65.695312 348.386719 45.125 339.660156 31.019531 322.441406 C 16.308594 304.484375 8.851562 277.230469 8.851562 241.433594 C 8.851562 205.636719 16.308594 178.382812 31.019531 160.425781 C 45.125 143.210938 65.695312 134.480469 92.152344 134.480469 C 125.195312 134.480469 142.472656 147.925781 150.703125 157.777344 C 153.953125 154.40625 158.511719 152.304688 163.550781 152.304688 C 167.648438 152.304688 171.429688 153.695312 174.445312 156.027344 C 168.988281 149.984375 163.550781 139.6875 163.550781 122.597656 C 163.550781 104.960938 174.171875 96.121094 183.542969 88.324219 "/>
</g>
</g>
</svg>
