<?xml version="1.0" encoding="UTF-8"?>
<svg xmlns="http://www.w3.org/2000/svg" xmlns:xlink="http://www.w3.org/1999/xlink" width="375pt" height="374.999991pt" viewBox="0 0 375 374.999991" version="1.2">
<g id="surface1">
<path style=" stroke:none;fill-rule:nonzero;fill:rgb(32.548523%,27.059937%,23.529053%);fill-opacity:1;" d="M 100.167969 320.085938 C 103.886719 308.117188 101.023438 294.542969 91.550781 285.066406 C 82.078125 275.585938 68.511719 272.730469 56.546875 276.445312 L 244.503906 85.101562 L 236.222656 76.816406 L 39.257812 277.171875 C 20.71875 295.71875 19.160156 324.230469 35.78125 340.855469 C 52.402344 357.484375 80.902344 355.929688 99.445312 337.382812 L 299.722656 140.34375 L 291.441406 132.058594 Z M 47.242188 329.394531 C 37.632812 319.789062 37.632812 304.207031 47.242188 294.59375 C 56.847656 284.984375 72.421875 284.984375 82.027344 294.59375 C 91.632812 304.207031 91.632812 319.785156 82.027344 329.394531 C 72.421875 339.003906 56.84375 339.003906 47.242188 329.394531 Z M 47.242188 329.394531 "/>
<path style=" stroke:none;fill-rule:nonzero;fill:rgb(32.548523%,27.059937%,23.529053%);fill-opacity:1;" d="M 298.441406 148.761719 L 337.910156 105.800781 C 355.972656 87.734375 354.925781 57.398438 335.578125 38.046875 C 316.234375 18.691406 285.910156 17.648438 267.847656 35.714844 L 220.179688 79.933594 C 220.179688 79.933594 246.039062 102.421875 261.441406 87.015625 C 276.84375 71.605469 287.992188 60.457031 287.992188 60.457031 C 287.992188 60.457031 314.3125 33.261719 322.183594 73.171875 C 329.671875 111.140625 281.78125 81.007812 281.78125 81.007812 L 273.675781 89.117188 L 282.519531 132.835938 Z M 298.441406 148.761719 "/>
</g>
</svg>
